# xmcd
#
# Track frame offsets: 
#        150
#        11832
#        20346
#        33049
#        46327
#        61749
#        73391
#        85790
#        96138
#        107801
#        117295
#        125836
#        137579
#        147369
#        158659
#
# Disc length: 2283 seconds
#
# Revision: 0
# Processed by: cddbd v1.5.2PL0 Copyright (c) Steve Scherf et al.
# Submitted via: ExactAudioCopyFreeDBPlugin 1.0
#
DISCID=c908e90f
DTITLE=Various Artist - Winter Wonderland A Crooner Christmas
DYEAR=2011
DGENRE=Oldies
TTITLE0=Frank Sinatra - Let it Snow Let it Snow Let it Snow
TTITLE1=Dean Martin - Winder Wonderland
TTITLE2=Bing Crosby - Have Yourself a Merry Little Christmas
TTITLE3=Nat King Cole - O Holy Night
TTITLE4=Wayne Newton - The Little Drummer Boy
TTITLE5=Perry Como - Its Beggining to Look a Lot Like Christmas
TTITLE6=Johnny Mercer - Santa Claus is Comin To Town
TTITLE7=Bobby Darin - Im Beggining to See The Light
TTITLE8=Al Martino - Ill be home for Christmas
TTITLE9=Bobby Vee - Home For the Holidays
TTITLE10=Bing Crosby - I wish you a Merry Chrstmas
TTITLE11=Frank Sinatra - Jingle Bells
TTITLE12=The Lettermen - The Christmas Waltz
TTITLE13=Dean Martin - White Christmas
TTITLE14=Wayne Newton - Silent Night
EXTD=
EXTT0=
EXTT1=
EXTT2=
EXTT3=
EXTT4=
EXTT5=
EXTT6=
EXTT7=
EXTT8=
EXTT9=
EXTT10=
EXTT11=
EXTT12=
EXTT13=
EXTT14=
PLAYORDER=
